# xmcd CD database file
#
# Track frame offsets:
#	150
#	11624
#	23808
#	38058
#	55339
#	75596
#	91498
#	103751
#	116733
#	136603
#	165315
#	184450
#	196348
#	212704
#	234559
#	256856
#	274397
#
# Disc length: 3877 seconds
#
# Revision: 0
# Processed by: cddbd v1.5.2PL0 Copyright (c) Steve Scherf et al.
# Submitted via: CDex 1.70beta1
#
DISCID=e40f2311
DTITLE=Ennio Morricone - Ennio Morricone Gold Edition Disc I
DYEAR=2007
DGENRE=New Age
TTITLE0=Nuovo Cinema Paradise
TTITLE1=La Califfa
TTITLE2=Once Upon A Time In The West
TTITLE3=The Endless Game
TTITLE4=Lontano
TTITLE5=La Ragione, Il Cuore, L'Amor
TTITLE6=Ninna Nanna In Blu
TTITLE7=Viaggio Con Anita
TTITLE8=Viva La Revolucion
TTITLE9=Oceano
TTITLE10=Il Deserto Dei Tartari
TTITLE11=Questa Specie D'Amore
TTITLE12=Dal Mare
TTITLE13=Mosca Addio
TTITLE14=Forse Basta
TTITLE15=Il Figlio E La Nostalgia
TTITLE16=Le Due Stagioni Della Vita
EXTD=YEAR: 2007
EXTT0=
EXTT1=
EXTT2=
EXTT3=
EXTT4=
EXTT5=
EXTT6=
EXTT7=
EXTT8=
EXTT9=
EXTT10=
EXTT11=
EXTT12=
EXTT13=
EXTT14=
EXTT15=
EXTT16=
PLAYORDER=
